<svg height="37" viewBox="0 0 200 37" width="200" xmlns="http://www.w3.org/2000/svg"><g fill="none" fill-rule="evenodd" transform=""><path d="m36.1995958.00012903h-7.7270596c-.4061768 0-.7386208.33161291-.7386208.7367742v26.06903227c0 .4051613-.332444.736129-.7373272.736129h-26.13501491c-.40682351 0-.73797397.3322581-.73797397.7374194v7.7070967c0 .4051613.33115046.7367742.73797397.7367742h35.33802251.7386207v-.7367742-35.24967737c0-.40516129-.332444-.7367742-.7386207-.7367742" fill="#f29700"/><path d="m.96408764 23.8849032h8.80200501c.46309325 0 .84145845-.3774193.84145845-.8393548v-8.78c0-.4612903-.3783652-.8387097-.84145845-.8387097h-8.80200501c-.46244644 0-.84081171.3774194-.84081171.8387097v8.78c0 .4619355.37836527.8393548.84081171.8393548" fill="#f29700"/><path d="m14.0645161 10.458129h8.802005c.4630933 0 .8414585-.3774193.8414585-.83870965v-8.77999999c0-.46193549-.3783652-.83935484-.8414585-.83935484h-.4721481-7.7270596-.6027973c-.4624464 0-.8408117.37741935-.8408117.83935484v8.77999999c0 .46129035.3783653.83870965.8408117.83870965" fill="#f29700"/><g fill="#545555"><path d="m151.036883 10.3210968c-.300106 0-.631903.2290322-.737974.5090322l-7.709597 20.3380645c-.106072.28-.333091.3083871-.505781.0632259l-4.955614-7.0496775c-.172043-.2445161-.313041-.6896774-.313041-.9890322v-13.1670968c0-.29870967-.245129-.54387096-.545234-.54387096h-2.62592c-.299458 0-.544587.24516129-.544587.54387096v13.2593548c0 .2993549-.141644.7445162-.314981.9883871l-6.31967 8.9367742c-.17269.243871-.108659.5780645.142938.7412904l1.944862 1.2670967c.251597.1632258.599563.0980645.774193-.1451613l5.337214-7.4412903c.174631-.2432258.45986-.2425806.633843.0006452l4.899345 6.8509677c.17463.2432258.46374.4425807.642251.4425807h.87121 2.425419.770959c.124829 0 .311748-.2296775.415879-.5103226l8.735387-23.5845161c.104131-.2806452-.05627-.5103226-.356375-.5103226z"/><path d="m63.4281187 2.25625806c-.3001051 0-.720511.17096775-.9352413.38l-11.4169295 11.10516134c-.2147303.2083871-.2140836.5496774.0006468.7587096l1.8872989 1.8283871c.2153772.2083871.5678713.2090323.7838952.0006452l10.490743-10.09161291c.2160239-.20774194.6377234-.37741936.9378285-.37741936h6.1469803c.3001051 0 .7218045.16967742.9371817.37741936l10.4913897 10.09161291c.216024.2083871.5685181.2077419.7838953-.0006452l1.8872989-1.8283871c.2147303-.2090322.2153771-.5503225.0006467-.7587096l-11.4169294-11.10516134c-.2147304-.20903225-.6351362-.38-.9352413-.38z"/><path d="m70.1517018 24.8945806c0-.2987096.2457758-.5438709.5452341-.5438709h11.7500202c.3001051 0 .5458808-.2445162.5458808-.543871v-2.463871c0-.2993548-.2457757-.5445161-.5458808-.5445161h-11.7500202c-.2994583 0-.5452341-.2445161-.5452341-.5432258v-3.72c0-.2987097.2457758-.5432258.5452341-.5432258h7.0699329c.3001051 0 .545234-.2451613.545234-.5445161v-2.5c0-.2987097-.2451289-.5432258-.545234-.5432258h-19.0333899c-.2994584 0-.5452341.2445161-.5452341.5432258v2.5c0 .2993548.2457757.5445161.5452341.5445161h7.1087395c.3001052 0 .5452341.2445161.5452341.5432258v3.72c0 .2987097-.2451289.5432258-.5452341.5432258h-11.7888269c-.3001051 0-.5445872.2451613-.5445872.5445161v2.463871c0 .2993548.2444821.543871.5445872.543871h11.7888269c.3001052 0 .5452341.2451613.5452341.5438709v5.9735484c0 .2993549-.2451289.543871-.5452341.543871h-12.4776457c-.3001051 0-.545234.2445161-.545234.543871v2.5006451c0 .2993549.2451289.543871.545234.543871h29.7744361c.3001051 0 .5458808-.2445161.5458808-.543871v-2.5006451c0-.2993549-.2457757-.543871-.5458808-.543871h-12.4420729c-.2994583 0-.5452341-.2445161-.5452341-.543871z"/><path d="m130.633034 6.27716129c0-.29935484.245129-.54387097.545234-.54387097h7.555017c.300105 0 .545234.24451613.545234.54387097v18.85483871c0 .2987097.245776.5432258.545234.5432258h2.626566c.299459 0 .544588-.2445161.544588-.5432258v-22.3316129c0-.29935484-.245129-.54387097-.544588-.54387097h-14.986498c-.300105 0-.545881.24451613-.545881.54387097v22.3316129c0 .2987097.245776.5432258.545881.5432258h2.623979c.300105 0 .545234-.2445161.545234-.5432258z"/><path d="m158.365527 2.80032258c0-.29935484-.245776-.54387097-.545234-.54387097h-2.62592c-.299458 0-.545234.24451613-.545234.54387097v1.35354839c0 .29935484-.245129.54387097-.545234.54387097h-8.146172c-.299458 0-.544587.24451612-.544587.54387096v2.45161291c0 .29870967.245129.54387096.544587.54387096h8.146172c.300105 0 .545234.24451613.545234.54387097v22.17096776c0 .2993548-.245129.543871-.545234.543871h-2.658905c-.299459 0-.545234.2445161-.545234.5438709v2.4167742c0 .2993549.245775.543871.545234.543871h6.375293c.299458 0 .545234-.2445161.545234-.543871v-25.67548386c0-.29935484.245129-.54387097.545234-.54387097h1.578139c.299458 0 .545234-.24516129.545234-.54387096v-2.45161291c0-.29935484-.245776-.54387096-.545234-.54387096h-1.578139c-.300105 0-.545234-.24451613-.545234-.54387097z"/><path d="m178.282416 23.268129c0 .2993549.245775.543871.545234.543871h7.427601c.300105 0 .545234.2451613.545234.543871v6.4993548c0 .2993548-.245129.543871-.545234.543871h-7.427601c-.299459 0-.545234.2445161-.545234.5438709v2.4167742c0 .2993549.245775.543871.545234.543871h19.733851c.299458 0 .545234-.2445161.545234-.543871v-2.4167742c0-.2993548-.245776-.5438709-.545234-.5438709h-7.501981c-.300105 0-.545234-.2445162-.545234-.543871v-6.4993548c0-.2987097.245129-.543871.545234-.543871h7.501981c.299458 0 .545234-.2445161.545234-.543871v-2.452258c0-.2993549-.245776-.543871-.545234-.543871h-19.733851c-.299459 0-.545234.2445161-.545234.543871z"/><path d="m191.857773 10.7845161c-.239307-.18-.239307-.4741935.000647-.6541935l5.156116-3.8619355c.239955-.17935484.435929-.57096775.435929-.87032258v-2.39548387c0-.29870968-.245129-.54322581-.545234-.54322581h-18.14407c-.300105 0-.545881.24451613-.545881.54322581v2.39741935c0 .29935484.245776.54387097.545881.54387097h12.07535c.300105 0 .503193.05677419.452744.12709677-.050448.06967742-.288463.27354839-.528417.45290323l-13.176167 9.82774193c-.239954.1793548-.284582.5180645-.097663.7516129l1.550974 1.9490323c.186272.2341935.534886.2793548.77484.0993548l8.186273-6.1309677c.239954-.1793549.632549-.1793549.871857.0006451l8.148112 6.1296774c.239955.18.593095.14.785835-.0890322l1.609185-1.9129032c.192093-.2296775.15458-.5645162-.085375-.7445162z"/><path d="m95.0021505 15.028129c0-.2993548.245129-.5438709.5452341-.5438709h7.6520334c.300105 0 .545234.2445161.545234.5438709v6.5529033c0 .2993548-.245129.5438709-.545234.5438709h-7.6520334c-.3001051 0-.5452341-.2445161-.5452341-.5438709zm12.4407795 0c0-.2993548.245776-.5438709.545881-.5438709h8.470208c.300105 0 .545234.2445161.545234.5438709v6.5529033c0 .2993548-.245129.5438709-.545234.5438709h-8.470208c-.300105 0-.545881-.2445161-.545881-.5438709zm13.831999 16.9664516c0-.2993548-.245775-.5438709-.545881-.5438709h-25.1816634c-.3001051 0-.5452341-.2445162-.5452341-.543871v-4.6870968c0-.2993548.245129-.5445161.5452341-.5445161h24.6118524c.299458 0 .544587-.2445161.544587-.5432258v-13.6193548c0-.2993549-.245129-.543871-.544587-.543871h-3.369715c-.299458 0-.488317-.2380645-.419112-.5290323l1.442315-6.03677416c.069206-.29096774-.119654-.52903226-.419112-.52903226h-3.592853-1.089821-16.0381603c-.3001051 0-.5090145-.24193548-.4643868-.53806451l.0957232-.63548387c.0446277-.29612904-.1642816-.53806452-.46374-.53806452h-2.6097502c-.3001051 0-.5885681.24064516-.6422507.53483871l-.7515563 4.12903226c-.0536826.29419355.1481122.53548387.4482173.53548387h2.6084566 1.0911149 16.7263323c.299458 0 .494138.23935484.431401.5316129l-.542647 2.54322578c-.062738.2929033-.358962.5322581-.659067.5322581h-20.1290325c-.2994583 0-.5445873.2445161-.5445873.543871v22.9438709c0 .2993549.245129.543871.5445873.543871h28.9174545c.300106 0 .545881-.2445161.545881-.543871z"/><path d="m165.560352 31.1382581c-.300105 0-.54588.2445161-.54588.5438709v2.4167742c0 .2993549.245775.5445162.54588.5445162h9.215944c.299458 0 .545234-.2451613.545234-.5445162v-2.4167742c0-.2993548-.245776-.5438709-.545234-.5438709z"/><path d="m60.8170103 29.2245161c0 .2987097-.2457758.543871-.5458809.543871h-2.5541272c-.3001051 0-.5452341-.2451613-.5452341-.543871v-2.5483871c0-.2993548.245129-.5438709.5452341-.5438709h2.5541272c.3001051 0 .5458809.2445161.5458809.5438709z"/><path d="m79.3051015 29.2245161c0 .2987097-.2457758.543871-.5458809.543871h-2.5541272c-.3001051 0-.5452341-.2451613-.5452341-.543871v-2.5483871c0-.2993548.245129-.5438709.5452341-.5438709h2.5541272c.3001051 0 .5458809.2445161.5458809.5438709z"/><path d="m171.366804 24.0836774c-.300105 0-.464387-.2303226-.364136-.5129032l3.039211-8.6025807c.099604-.2819354-.064678-.512258-.364783-.5116129l-2.964185.0070968c-.299458.0006452-.626081.2322581-.725038.5148387l-4.245452 12.0961291c-.099604.2825806.064677.5135483.364782.5135483h8.668769c.299459 0 .545234-.2451612.545234-.5445161v-2.416129c0-.2993549-.245775-.543871-.545234-.543871z"/></g><path d="m169.792158 12.2052258c.103484-.2806452.278114-.7380645.388714-1.0167742l3.328967-8.42580644c.109952-.27870968-.045274-.50645161-.345379-.50645161h-3.072197c-.299458 0-.630609.22967742-.73474.51032258l-4.15361 11.17870967c-.104131.2806452.05627.5096774.356375.5096774h2.854879c.300105 0 .630609-.2296774.734093-.5103226z" fill="#f29700"/></g></svg>